<svg width="151" height="32" viewBox="0 0 151 32" fill="none" xmlns="http://www.w3.org/2000/svg">
<path d="M2.73878 14.8531L11.4447 23.559C12.759 24.8732 14.9827 24.4603 15.7376 22.7619C16.1731 21.7821 15.9747 20.6363 15.2352 19.8598L6.74415 10.9442C5.76576 9.9169 4.17345 9.78421 3.03853 10.6354C1.6761 11.6572 1.53455 13.6488 2.73878 14.8531Z" fill="#60A5FA" fill-opacity="0.9"/>
<path d="M11.4327 2.28163L2.7267 10.9876C1.41248 12.3018 1.82538 14.5256 3.52378 15.2804C4.50364 15.7159 5.6494 15.5176 6.42587 14.7781L15.3415 6.28699C16.3688 5.30861 16.5015 3.7163 15.6503 2.58137C14.6285 1.21895 12.6369 1.0774 11.4327 2.28163Z" fill="#1D4ED8" fill-opacity="0.9"/>
<path d="M29.2612 17.1469L20.5553 8.44098C19.241 7.12676 17.0173 7.53966 16.2624 9.23806C15.8269 10.2179 16.0253 11.3637 16.7648 12.1402L25.2559 21.0558C26.2342 22.0831 27.8265 22.2158 28.9615 21.3646C30.3239 20.3428 30.4654 18.3512 29.2612 17.1469Z" fill="#1D4ED8" fill-opacity="0.9"/>
<path d="M20.5673 29.7184L29.2733 21.0124C30.5875 19.6982 30.1746 17.4744 28.4762 16.7196C27.4964 16.2841 26.3506 16.4824 25.5741 17.2219L16.6585 25.713C15.6312 26.6914 15.4985 28.2837 16.3497 29.4186C17.3715 30.7811 19.3631 30.9226 20.5673 29.7184Z" fill="#60A5FA" fill-opacity="0.9"/>
<path d="M14.2857 14.2857C13.3389 15.2325 13.3389 16.7675 14.2857 17.7143C15.2325 18.6611 16.7675 18.6611 17.7143 17.7143C18.661 16.7675 18.661 15.2325 17.7143 14.2857C16.7675 13.3389 15.2325 13.3389 14.2857 14.2857Z" fill="#38BDF8"/>
<path d="M47.128 8.628C47.944 8.628 48.832 8.676 49.792 8.772C50.752 8.852 51.688 9.028 52.6 9.3L52.36 11.724C51.656 11.708 50.832 11.692 49.888 11.676C48.944 11.66 48.016 11.652 47.104 11.652C46.656 11.652 46.272 11.668 45.952 11.7C45.648 11.716 45.4 11.78 45.208 11.892C45.016 11.988 44.88 12.14 44.8 12.348C44.72 12.556 44.68 12.844 44.68 13.212C44.68 13.772 44.808 14.18 45.064 14.436C45.336 14.692 45.792 14.924 46.432 15.132L49.624 16.164C50.952 16.612 51.872 17.22 52.384 17.988C52.896 18.756 53.152 19.764 53.152 21.012C53.152 21.956 53.04 22.74 52.816 23.364C52.592 23.988 52.24 24.476 51.76 24.828C51.28 25.18 50.648 25.428 49.864 25.572C49.08 25.732 48.12 25.812 46.984 25.812C46.44 25.812 45.664 25.772 44.656 25.692C43.648 25.628 42.496 25.452 41.2 25.164L41.44 22.572C42.384 22.588 43.2 22.612 43.888 22.644C44.592 22.66 45.192 22.676 45.688 22.692C46.184 22.692 46.616 22.692 46.984 22.692C47.624 22.692 48.12 22.652 48.472 22.572C48.84 22.492 49.096 22.332 49.24 22.092C49.384 21.852 49.456 21.508 49.456 21.06C49.456 20.676 49.4 20.372 49.288 20.148C49.192 19.908 49.024 19.724 48.784 19.596C48.56 19.452 48.248 19.324 47.848 19.212L44.488 18.06C43.224 17.596 42.328 16.988 41.8 16.236C41.272 15.484 41.008 14.492 41.008 13.26C41.008 12.3 41.12 11.524 41.344 10.932C41.584 10.324 41.944 9.852 42.424 9.516C42.92 9.18 43.552 8.948 44.32 8.82C45.104 8.692 46.04 8.628 47.128 8.628ZM63.7585 13.332C65.9985 13.332 67.1185 14.428 67.1185 16.62V25.5H63.5665V17.724C63.5665 17.196 63.4705 16.836 63.2785 16.644C63.0865 16.436 62.7585 16.332 62.2945 16.332C61.7825 16.332 61.2545 16.436 60.7105 16.644C60.1665 16.836 59.4945 17.14 58.6945 17.556L58.5265 15.564C59.3745 14.844 60.2385 14.292 61.1185 13.908C62.0145 13.524 62.8945 13.332 63.7585 13.332ZM58.3585 13.644L58.7665 15.996L59.0545 16.308V25.5H55.5025V13.644H58.3585ZM76.1806 13.332C77.1726 13.332 78.0126 13.468 78.7006 13.74C79.3886 13.996 79.9086 14.444 80.2606 15.084C80.6286 15.708 80.8126 16.572 80.8126 17.676V25.5H77.9806L77.4766 22.932L77.2366 22.572V17.652C77.2366 17.092 77.1006 16.684 76.8286 16.428C76.5726 16.172 76.0766 16.044 75.3406 16.044C74.7326 16.044 73.9726 16.068 73.0606 16.116C72.1486 16.148 71.2126 16.196 70.2526 16.26L69.9166 13.908C70.4926 13.796 71.1566 13.7 71.9086 13.62C72.6606 13.54 73.4126 13.476 74.1646 13.428C74.9166 13.364 75.5886 13.332 76.1806 13.332ZM79.3486 18.204L79.3246 20.196L74.0446 20.22C73.6126 20.22 73.3006 20.324 73.1086 20.532C72.9326 20.74 72.8446 21.02 72.8446 21.372V21.948C72.8446 22.348 72.9566 22.66 73.1806 22.884C73.4046 23.092 73.7646 23.196 74.2606 23.196C74.6766 23.196 75.1246 23.108 75.6046 22.932C76.1006 22.756 76.5886 22.508 77.0686 22.188C77.5486 21.868 77.9726 21.492 78.3406 21.06V22.596C78.1966 22.836 77.9806 23.14 77.6926 23.508C77.4206 23.86 77.0686 24.212 76.6366 24.564C76.2046 24.9 75.7006 25.188 75.1246 25.428C74.5486 25.668 73.8926 25.788 73.1566 25.788C72.4366 25.788 71.7886 25.66 71.2126 25.404C70.6366 25.148 70.1806 24.772 69.8446 24.276C69.5086 23.78 69.3406 23.164 69.3406 22.428V21.204C69.3406 20.26 69.6606 19.524 70.3006 18.996C70.9406 18.468 71.8206 18.204 72.9406 18.204H79.3486ZM91.4041 13.356C92.8921 13.356 93.9561 13.9 94.5961 14.988C95.2361 16.076 95.5561 17.636 95.5561 19.668C95.5561 21.252 95.3881 22.492 95.0521 23.388C94.7321 24.284 94.2361 24.916 93.5641 25.284C92.9081 25.636 92.0841 25.812 91.0921 25.812C90.2441 25.812 89.4361 25.692 88.6681 25.452C87.9001 25.212 87.2201 24.812 86.6281 24.252L86.8681 22.668C87.3961 22.828 87.8761 22.972 88.3081 23.1C88.7561 23.212 89.2601 23.268 89.8201 23.268C90.3321 23.268 90.7401 23.18 91.0441 23.004C91.3481 22.828 91.5641 22.484 91.6921 21.972C91.8361 21.444 91.9081 20.684 91.9081 19.692C91.9081 18.716 91.8441 17.972 91.7161 17.46C91.5881 16.932 91.3801 16.572 91.0921 16.38C90.8041 16.172 90.4281 16.068 89.9641 16.068C89.4521 16.068 88.9801 16.172 88.5481 16.38C88.1161 16.572 87.6281 16.852 87.0841 17.22L86.6281 15.588C86.9481 15.156 87.3561 14.772 87.8521 14.436C88.3641 14.1 88.9241 13.836 89.5321 13.644C90.1401 13.452 90.7641 13.356 91.4041 13.356ZM86.4841 13.644L86.8201 15.804L87.1561 16.164V23.868L87.0361 24.156C87.0841 24.636 87.1161 25.132 87.1321 25.644C87.1641 26.172 87.1721 26.692 87.1561 27.204V30.06H83.6041V13.644H86.4841ZM103.515 13.332C103.947 13.332 104.419 13.356 104.931 13.404C105.443 13.436 105.955 13.508 106.467 13.62C106.995 13.716 107.475 13.86 107.907 14.052L107.523 16.284C106.883 16.268 106.267 16.252 105.675 16.236C105.099 16.22 104.579 16.212 104.115 16.212C103.395 16.212 102.827 16.308 102.411 16.5C101.995 16.692 101.691 17.036 101.499 17.532C101.323 18.012 101.235 18.684 101.235 19.548C101.235 20.428 101.323 21.116 101.499 21.612C101.691 22.108 101.995 22.452 102.411 22.644C102.827 22.836 103.395 22.932 104.115 22.932C104.371 22.932 104.699 22.924 105.099 22.908C105.499 22.892 105.931 22.876 106.395 22.86C106.859 22.828 107.315 22.78 107.763 22.716L108.099 24.972C107.459 25.26 106.731 25.468 105.915 25.596C105.099 25.724 104.291 25.788 103.491 25.788C102.019 25.788 100.843 25.588 99.9627 25.188C99.0987 24.772 98.4747 24.108 98.0907 23.196C97.7067 22.284 97.5147 21.068 97.5147 19.548C97.5147 18.028 97.7067 16.812 98.0907 15.9C98.4907 14.988 99.1307 14.332 100.011 13.932C100.891 13.532 102.059 13.332 103.515 13.332ZM115.705 13.332C117.193 13.332 118.385 13.54 119.281 13.956C120.177 14.356 120.817 15.012 121.201 15.924C121.601 16.836 121.801 18.06 121.801 19.596C121.801 21.1 121.601 22.308 121.201 23.22C120.817 24.132 120.177 24.788 119.281 25.188C118.385 25.588 117.193 25.788 115.705 25.788C114.233 25.788 113.041 25.588 112.129 25.188C111.233 24.788 110.585 24.132 110.185 23.22C109.785 22.308 109.585 21.1 109.585 19.596C109.585 18.06 109.785 16.836 110.185 15.924C110.585 15.012 111.233 14.356 112.129 13.956C113.041 13.54 114.233 13.332 115.705 13.332ZM115.705 15.924C115.097 15.924 114.617 16.028 114.265 16.236C113.913 16.444 113.665 16.812 113.521 17.34C113.377 17.868 113.305 18.62 113.305 19.596C113.305 20.556 113.377 21.3 113.521 21.828C113.665 22.356 113.913 22.724 114.265 22.932C114.617 23.124 115.097 23.22 115.705 23.22C116.313 23.22 116.793 23.124 117.145 22.932C117.497 22.724 117.745 22.356 117.889 21.828C118.033 21.3 118.105 20.556 118.105 19.596C118.105 18.62 118.033 17.868 117.889 17.34C117.745 16.812 117.497 16.444 117.145 16.236C116.793 16.028 116.313 15.924 115.705 15.924ZM128.277 13.332C129.109 13.332 129.909 13.452 130.677 13.692C131.461 13.932 132.149 14.324 132.741 14.868L132.501 16.5C131.957 16.34 131.469 16.196 131.037 16.068C130.605 15.94 130.101 15.876 129.525 15.876C129.029 15.876 128.629 15.964 128.325 16.14C128.021 16.316 127.797 16.66 127.653 17.172C127.509 17.684 127.437 18.444 127.437 19.452C127.437 20.396 127.501 21.116 127.629 21.612C127.773 22.092 127.989 22.428 128.277 22.62C128.581 22.796 128.965 22.884 129.429 22.884C129.845 22.884 130.205 22.844 130.509 22.764C130.813 22.668 131.117 22.532 131.421 22.356C131.725 22.164 132.069 21.932 132.453 21.66L132.717 23.412C132.237 24.084 131.613 24.652 130.845 25.116C130.077 25.564 129.133 25.788 128.013 25.788C126.493 25.788 125.405 25.244 124.749 24.156C124.109 23.068 123.789 21.508 123.789 19.476C123.789 17.892 123.949 16.66 124.269 15.78C124.605 14.884 125.109 14.252 125.781 13.884C126.453 13.516 127.285 13.332 128.277 13.332ZM135.645 8.7V25.5H132.837L132.477 23.316L132.093 23.052V15.276L132.237 14.964C132.189 14.468 132.149 13.972 132.117 13.476C132.101 12.964 132.093 12.444 132.093 11.916V8.7H135.645ZM144.158 13.332C146.158 13.332 147.59 13.676 148.454 14.364C149.334 15.036 149.774 16.044 149.774 17.388C149.79 18.476 149.518 19.292 148.958 19.836C148.398 20.364 147.43 20.628 146.054 20.628H139.43V18.636H145.07C145.614 18.636 145.958 18.524 146.102 18.3C146.262 18.06 146.342 17.732 146.342 17.316C146.326 16.756 146.158 16.372 145.838 16.164C145.534 15.94 145.014 15.828 144.278 15.828C143.622 15.828 143.11 15.916 142.742 16.092C142.374 16.268 142.118 16.604 141.974 17.1C141.83 17.596 141.758 18.316 141.758 19.26C141.758 20.252 141.846 21.02 142.022 21.564C142.198 22.092 142.494 22.46 142.91 22.668C143.342 22.876 143.934 22.98 144.686 22.98C145.23 22.98 145.902 22.964 146.702 22.932C147.518 22.884 148.334 22.812 149.15 22.716L149.486 24.9C149.022 25.124 148.494 25.3 147.902 25.428C147.31 25.556 146.702 25.644 146.078 25.692C145.454 25.756 144.854 25.788 144.278 25.788C142.774 25.788 141.558 25.572 140.63 25.14C139.718 24.692 139.054 24.012 138.638 23.1C138.238 22.188 138.038 21.02 138.038 19.596C138.038 18.044 138.246 16.812 138.662 15.9C139.078 14.988 139.734 14.332 140.63 13.932C141.526 13.532 142.702 13.332 144.158 13.332Z" fill="white"/>
</svg>
