<svg width="168" height="32" viewBox="0 0 168 32" fill="none" xmlns="http://www.w3.org/2000/svg">
<path fill-rule="evenodd" clip-rule="evenodd" d="M9.13827 12.9949C8.2774 13.869 7.79487 15.0466 7.79487 16.2735L13.1195 21.5981C13.9605 22.4391 15.3192 22.4542 16.1787 21.6321C17.0589 20.7902 17.082 19.3916 16.2301 18.521L9.9829 12.1373L9.13827 12.9949Z" fill="#1D4ED8"/>
<path d="M7.79487 16.2735C7.79487 15.0466 8.2774 13.869 9.13827 12.9949L9.9829 12.1373L16.0882 5.93808C16.4761 5.54418 16.7533 5.04353 16.7974 4.49243C16.9176 2.98789 16.398 2.33088 14.6416 2.20526C13.9362 2.15481 13.2612 2.46944 12.765 2.97321L5.08556 10.769C4.71854 11.1416 4.51282 11.6436 4.51282 12.1666C4.51282 12.6947 4.72263 13.2013 5.0961 13.5747L7.79487 16.2735Z" fill="#60A5FA"/>
<path fill-rule="evenodd" clip-rule="evenodd" d="M25.3233 19.1419C26.1841 18.2677 26.6667 17.0901 26.6667 15.8632L21.342 10.5386C20.5011 9.69764 19.1423 9.68254 18.2829 10.5046C17.4027 11.3465 17.3796 12.7452 18.2315 13.6157L24.4786 19.9995L25.3233 19.1419Z" fill="#1D4ED8"/>
<path d="M26.6667 15.8632C26.6667 17.0901 26.1841 18.2677 25.3233 19.1419L24.4786 19.9995L18.3734 26.1987C17.9854 26.5926 17.7082 27.0932 17.6642 27.6443C17.544 29.1489 18.0636 29.8059 19.82 29.9315C20.5253 29.9819 21.2003 29.6673 21.6966 29.1635L29.376 21.3677C29.743 20.9952 29.9487 20.4932 29.9487 19.9702C29.9487 19.442 29.7389 18.9355 29.3654 18.562L26.6667 15.8632Z" fill="#60A5FA"/>
<circle cx="11.2137" cy="29.5385" r="2.46154" fill="#38BDF8"/>
<circle cx="23.2479" cy="2.46154" r="2.46154" fill="#38BDF8"/>
<rect x="34.351" y="9.95781" width="4.85068" height="9.61012" rx="2.42534" transform="rotate(134 34.351 9.95781)" fill="#1D4ED8"/>
<path d="M29.0513 8.74143L26.3776 9.02564L29.4347 11.9192C29.7229 12.192 30.1345 12.2907 30.515 12.1782C30.7458 12.11 30.9482 11.9689 31.092 11.7759L31.1792 11.6589C31.3621 11.4134 31.4682 11.1193 31.4843 10.8135L31.4848 10.8026C31.5055 10.4084 31.3785 10.0206 31.1286 9.71496L30.9804 9.53373C30.5122 8.96116 29.7868 8.66324 29.0513 8.74143Z" fill="#60A5FA"/>
<rect y="22.0876" width="4.85068" height="9.61012" rx="2.42534" transform="rotate(-46 0 22.0876)" fill="#1D4ED8"/>
<path d="M5.29949 23.304L7.97322 23.0198L4.91612 20.1262C4.62796 19.8534 4.21636 19.7547 3.83585 19.8672C3.60508 19.9353 3.40262 20.0765 3.25884 20.2695L3.17167 20.3865C2.98875 20.632 2.88259 20.9261 2.86656 21.2318L2.86599 21.2428C2.84533 21.637 2.97235 22.0248 3.22226 22.3304L3.37045 22.5117C3.83866 23.0842 4.564 23.3822 5.29949 23.304Z" fill="#60A5FA"/>
<path d="M49.8628 24.788C48.5188 24.788 47.2308 24.612 45.9988 24.26C44.7668 23.892 43.7748 23.42 43.0228 22.844L44.3428 19.916C45.0628 20.428 45.9108 20.852 46.8868 21.188C47.8788 21.508 48.8788 21.668 49.8868 21.668C50.6548 21.668 51.2708 21.596 51.7348 21.452C52.2148 21.292 52.5668 21.076 52.7908 20.804C53.0148 20.532 53.1268 20.22 53.1268 19.868C53.1268 19.42 52.9508 19.068 52.5988 18.812C52.2468 18.54 51.7828 18.324 51.2068 18.164C50.6308 17.988 49.9908 17.828 49.2868 17.684C48.5988 17.524 47.9028 17.332 47.1988 17.108C46.5108 16.884 45.8788 16.596 45.3028 16.244C44.7268 15.892 44.2548 15.428 43.8868 14.852C43.5348 14.276 43.3588 13.54 43.3588 12.644C43.3588 11.684 43.6148 10.812 44.1268 10.028C44.6548 9.228 45.4388 8.596 46.4788 8.132C47.5348 7.652 48.8548 7.412 50.4388 7.412C51.4948 7.412 52.5348 7.54 53.5588 7.796C54.5828 8.036 55.4868 8.404 56.2708 8.9L55.0708 11.852C54.2868 11.404 53.5028 11.076 52.7188 10.868C51.9348 10.644 51.1668 10.532 50.4148 10.532C49.6628 10.532 49.0468 10.62 48.5668 10.796C48.0868 10.972 47.7428 11.204 47.5348 11.492C47.3268 11.764 47.2228 12.084 47.2228 12.452C47.2228 12.884 47.3988 13.236 47.7508 13.508C48.1028 13.764 48.5668 13.972 49.1428 14.132C49.7188 14.292 50.3508 14.452 51.0388 14.612C51.7428 14.772 52.4388 14.956 53.1268 15.164C53.8308 15.372 54.4708 15.652 55.0468 16.004C55.6228 16.356 56.0868 16.82 56.4388 17.396C56.8068 17.972 56.9908 18.7 56.9908 19.58C56.9908 20.524 56.7268 21.388 56.1988 22.172C55.6708 22.956 54.8788 23.588 53.8228 24.068C52.7828 24.548 51.4628 24.788 49.8628 24.788ZM67.2315 11.396C68.2555 11.396 69.1675 11.604 69.9675 12.02C70.7835 12.42 71.4235 13.044 71.8875 13.892C72.3515 14.724 72.5835 15.796 72.5835 17.108V24.5H68.8395V17.684C68.8395 16.644 68.6075 15.876 68.1435 15.38C67.6955 14.884 67.0555 14.636 66.2235 14.636C65.6315 14.636 65.0955 14.764 64.6155 15.02C64.1515 15.26 63.7835 15.636 63.5115 16.148C63.2555 16.66 63.1275 17.316 63.1275 18.116V24.5H59.3835V11.588H62.9595V15.164L62.2875 14.084C62.7515 13.22 63.4155 12.556 64.2795 12.092C65.1435 11.628 66.1275 11.396 67.2315 11.396ZM83.8973 24.5V21.98L83.6573 21.428V16.916C83.6573 16.116 83.4093 15.492 82.9133 15.044C82.4333 14.596 81.6893 14.372 80.6813 14.372C79.9933 14.372 79.3133 14.484 78.6413 14.708C77.9853 14.916 77.4253 15.204 76.9613 15.572L75.6173 12.956C76.3213 12.46 77.1693 12.076 78.1613 11.804C79.1533 11.532 80.1613 11.396 81.1853 11.396C83.1533 11.396 84.6813 11.86 85.7693 12.788C86.8573 13.716 87.4013 15.164 87.4013 17.132V24.5H83.8973ZM79.9613 24.692C78.9533 24.692 78.0893 24.524 77.3693 24.188C76.6493 23.836 76.0973 23.364 75.7133 22.772C75.3293 22.18 75.1373 21.516 75.1373 20.78C75.1373 20.012 75.3213 19.34 75.6893 18.764C76.0733 18.188 76.6733 17.74 77.4893 17.42C78.3053 17.084 79.3693 16.916 80.6813 16.916H84.1133V19.1H81.0893C80.2093 19.1 79.6013 19.244 79.2653 19.532C78.9453 19.82 78.7853 20.18 78.7853 20.612C78.7853 21.092 78.9693 21.476 79.3373 21.764C79.7213 22.036 80.2413 22.172 80.8973 22.172C81.5213 22.172 82.0813 22.028 82.5773 21.74C83.0733 21.436 83.4333 20.996 83.6573 20.42L84.2333 22.148C83.9613 22.98 83.4653 23.612 82.7453 24.044C82.0253 24.476 81.0973 24.692 79.9613 24.692ZM98.4218 24.692C97.3338 24.692 96.3818 24.452 95.5658 23.972C94.7498 23.492 94.1098 22.764 93.6458 21.788C93.1978 20.796 92.9738 19.548 92.9738 18.044C92.9738 16.524 93.1898 15.276 93.6218 14.3C94.0538 13.324 94.6778 12.596 95.4938 12.116C96.3098 11.636 97.2858 11.396 98.4218 11.396C99.6378 11.396 100.726 11.676 101.686 12.236C102.662 12.78 103.43 13.548 103.99 14.54C104.566 15.532 104.854 16.7 104.854 18.044C104.854 19.404 104.566 20.58 103.99 21.572C103.43 22.564 102.662 23.332 101.686 23.876C100.726 24.42 99.6378 24.692 98.4218 24.692ZM90.7898 29.156V11.588H94.3658V14.228L94.2938 18.068L94.5338 21.884V29.156H90.7898ZM97.7738 21.62C98.3978 21.62 98.9498 21.476 99.4298 21.188C99.9258 20.9 100.318 20.492 100.606 19.964C100.91 19.42 101.062 18.78 101.062 18.044C101.062 17.292 100.91 16.652 100.606 16.124C100.318 15.596 99.9258 15.188 99.4298 14.9C98.9498 14.612 98.3978 14.468 97.7738 14.468C97.1498 14.468 96.5898 14.612 96.0938 14.9C95.5978 15.188 95.2058 15.596 94.9178 16.124C94.6298 16.652 94.4858 17.292 94.4858 18.044C94.4858 18.78 94.6298 19.42 94.9178 19.964C95.2058 20.492 95.5978 20.9 96.0938 21.188C96.5898 21.476 97.1498 21.62 97.7738 21.62ZM113.6 24.692C112.208 24.692 110.968 24.412 109.88 23.852C108.792 23.276 107.936 22.484 107.312 21.476C106.704 20.468 106.4 19.324 106.4 18.044C106.4 16.748 106.704 15.604 107.312 14.612C107.936 13.604 108.792 12.82 109.88 12.26C110.968 11.684 112.208 11.396 113.6 11.396C114.96 11.396 116.144 11.684 117.152 12.26C118.16 12.82 118.904 13.628 119.384 14.684L116.48 16.244C116.144 15.636 115.72 15.188 115.208 14.9C114.712 14.612 114.168 14.468 113.576 14.468C112.936 14.468 112.36 14.612 111.848 14.9C111.336 15.188 110.928 15.596 110.624 16.124C110.336 16.652 110.192 17.292 110.192 18.044C110.192 18.796 110.336 19.436 110.624 19.964C110.928 20.492 111.336 20.9 111.848 21.188C112.36 21.476 112.936 21.62 113.576 21.62C114.168 21.62 114.712 21.484 115.208 21.212C115.72 20.924 116.144 20.468 116.48 19.844L119.384 21.428C118.904 22.468 118.16 23.276 117.152 23.852C116.144 24.412 114.96 24.692 113.6 24.692ZM127.52 24.692C126.144 24.692 124.92 24.404 123.848 23.828C122.792 23.252 121.952 22.468 121.328 21.476C120.72 20.468 120.416 19.324 120.416 18.044C120.416 16.748 120.72 15.604 121.328 14.612C121.952 13.604 122.792 12.82 123.848 12.26C124.92 11.684 126.144 11.396 127.52 11.396C128.88 11.396 130.096 11.684 131.168 12.26C132.24 12.82 133.08 13.596 133.688 14.588C134.296 15.58 134.6 16.732 134.6 18.044C134.6 19.324 134.296 20.468 133.688 21.476C133.08 22.468 132.24 23.252 131.168 23.828C130.096 24.404 128.88 24.692 127.52 24.692ZM127.52 21.62C128.144 21.62 128.704 21.476 129.2 21.188C129.696 20.9 130.088 20.492 130.376 19.964C130.664 19.42 130.808 18.78 130.808 18.044C130.808 17.292 130.664 16.652 130.376 16.124C130.088 15.596 129.696 15.188 129.2 14.9C128.704 14.612 128.144 14.468 127.52 14.468C126.896 14.468 126.336 14.612 125.84 14.9C125.344 15.188 124.944 15.596 124.64 16.124C124.352 16.652 124.208 17.292 124.208 18.044C124.208 18.78 124.352 19.42 124.64 19.964C124.944 20.492 125.344 20.9 125.84 21.188C126.336 21.476 126.896 21.62 127.52 21.62ZM142.646 24.692C141.43 24.692 140.334 24.42 139.358 23.876C138.382 23.316 137.606 22.54 137.03 21.548C136.47 20.556 136.19 19.388 136.19 18.044C136.19 16.684 136.47 15.508 137.03 14.516C137.606 13.524 138.382 12.756 139.358 12.212C140.334 11.668 141.43 11.396 142.646 11.396C143.734 11.396 144.686 11.636 145.502 12.116C146.318 12.596 146.95 13.324 147.398 14.3C147.846 15.276 148.07 16.524 148.07 18.044C148.07 19.548 147.854 20.796 147.422 21.788C146.99 22.764 146.366 23.492 145.55 23.972C144.75 24.452 143.782 24.692 142.646 24.692ZM143.294 21.62C143.902 21.62 144.454 21.476 144.95 21.188C145.446 20.9 145.838 20.492 146.126 19.964C146.43 19.42 146.582 18.78 146.582 18.044C146.582 17.292 146.43 16.652 146.126 16.124C145.838 15.596 145.446 15.188 144.95 14.9C144.454 14.612 143.902 14.468 143.294 14.468C142.67 14.468 142.11 14.612 141.614 14.9C141.118 15.188 140.718 15.596 140.414 16.124C140.126 16.652 139.982 17.292 139.982 18.044C139.982 18.78 140.126 19.42 140.414 19.964C140.718 20.492 141.118 20.9 141.614 21.188C142.11 21.476 142.67 21.62 143.294 21.62ZM146.678 24.5V21.86L146.75 18.02L146.51 14.204V6.692H150.254V24.5H146.678ZM160.127 24.692C158.655 24.692 157.359 24.404 156.239 23.828C155.135 23.252 154.279 22.468 153.671 21.476C153.063 20.468 152.759 19.324 152.759 18.044C152.759 16.748 153.055 15.604 153.647 14.612C154.255 13.604 155.079 12.82 156.119 12.26C157.159 11.684 158.335 11.396 159.647 11.396C160.911 11.396 162.047 11.668 163.055 12.212C164.079 12.74 164.887 13.508 165.479 14.516C166.071 15.508 166.367 16.7 166.367 18.092C166.367 18.236 166.359 18.404 166.343 18.596C166.327 18.772 166.311 18.94 166.295 19.1H155.807V16.916H164.327L162.887 17.564C162.887 16.892 162.751 16.308 162.479 15.812C162.207 15.316 161.831 14.932 161.351 14.66C160.871 14.372 160.311 14.228 159.671 14.228C159.031 14.228 158.463 14.372 157.967 14.66C157.487 14.932 157.111 15.324 156.839 15.836C156.567 16.332 156.431 16.924 156.431 17.612V18.188C156.431 18.892 156.583 19.516 156.887 20.06C157.207 20.588 157.647 20.996 158.207 21.284C158.783 21.556 159.455 21.692 160.223 21.692C160.911 21.692 161.511 21.588 162.023 21.38C162.551 21.172 163.031 20.86 163.463 20.444L165.455 22.604C164.863 23.276 164.119 23.796 163.223 24.164C162.327 24.516 161.295 24.692 160.127 24.692Z" fill="white"/>
</svg>
