<svg width="160" height="32" viewBox="0 0 185 57" fill="none" xmlns="http://www.w3.org/2000/svg">
<g filter="url(#filter0_d_142_7)">
<path d="M18.996 29.6761L5.23192 8.12324C3.10642 4.79498 5.49685 0.432098 9.44591 0.432098L35.8183 0.432098C37.5814 0.432098 39.0107 1.8614 39.0107 3.62454C39.0107 5.38653 37.5832 6.81535 35.8212 6.81698L20.7493 6.83083C16.7581 6.83451 14.3798 11.2829 16.5934 14.604L24.3229 26.2003C25.3387 27.7242 24.8609 29.7888 23.279 30.7115C21.8048 31.5714 19.9146 31.1145 18.996 29.6761Z" fill="url(#paint0_linear_142_7)" shape-rendering="crispEdges"/>
</g>
<g filter="url(#filter1_d_142_7)">
<path d="M49.7237 19.1881L63.4878 40.741C65.6133 44.0692 63.2229 48.4321 59.2738 48.4321L32.9014 48.4321C31.1383 48.4321 29.709 47.0028 29.709 45.2397C29.709 43.4777 31.1365 42.0488 32.8985 42.0472L47.9704 42.0334C51.9616 42.0297 54.3399 37.5813 52.1263 34.2602L44.3968 22.6639C43.3811 21.14 43.8589 19.0754 45.4408 18.1527C46.915 17.2928 48.8051 17.7497 49.7237 19.1881Z" fill="url(#paint1_linear_142_7)" shape-rendering="crispEdges"/>
</g>
<g filter="url(#filter2_d_142_7)">
<path d="M25.2144 34.4987L37.9284 11.8066C38.7756 10.2946 40.7111 9.79166 42.1872 10.7C43.5748 11.5539 44.0461 13.3478 43.2574 14.7735L30.6665 37.534C29.8148 39.0735 27.8594 39.6048 26.3458 38.7078C24.8887 37.8444 24.3866 35.9762 25.2144 34.4987Z" fill="url(#paint2_linear_142_7)" shape-rendering="crispEdges"/>
</g>
<path d="M79.8555 30.5761C80.3835 30.5761 80.8155 30.5361 81.1515 30.4561C81.5035 30.3601 81.7835 30.2401 81.9915 30.0961C82.1995 29.9361 82.3435 29.7521 82.4235 29.5441C82.5035 29.3361 82.5435 29.1041 82.5435 28.8481C82.5435 28.3041 82.2875 27.8561 81.7755 27.5041C81.2635 27.1361 80.3835 26.7441 79.1355 26.3281C78.5915 26.1361 78.0475 25.9201 77.5035 25.6801C76.9595 25.4241 76.4715 25.1121 76.0395 24.7441C75.6075 24.3601 75.2555 23.9041 74.9835 23.3761C74.7115 22.8321 74.5755 22.1761 74.5755 21.4081C74.5755 20.6401 74.7195 19.9521 75.0075 19.3441C75.2955 18.7201 75.7035 18.1921 76.2315 17.7601C76.7595 17.3281 77.3995 17.0001 78.1515 16.7761C78.9035 16.5361 79.7515 16.4161 80.6955 16.4161C81.8155 16.4161 82.7835 16.5361 83.5995 16.7761C84.4155 17.0161 85.0875 17.2801 85.6155 17.5681L84.5355 20.5201C84.0715 20.2801 83.5515 20.0721 82.9755 19.8961C82.4155 19.7041 81.7355 19.6081 80.9355 19.6081C80.0395 19.6081 79.3915 19.7361 78.9915 19.9921C78.6075 20.2321 78.4155 20.6081 78.4155 21.1201C78.4155 21.4241 78.4875 21.6801 78.6315 21.8881C78.7755 22.0961 78.9755 22.2881 79.2315 22.4641C79.5035 22.6241 79.8075 22.7761 80.1435 22.9201C80.4955 23.0481 80.8795 23.1841 81.2955 23.3281C82.1595 23.6481 82.9115 23.9681 83.5515 24.2881C84.1915 24.5921 84.7195 24.9521 85.1355 25.3681C85.5675 25.7841 85.8875 26.2721 86.0955 26.8321C86.3035 27.3921 86.4075 28.0721 86.4075 28.8721C86.4075 30.4241 85.8635 31.6321 84.7755 32.4961C83.6875 33.3441 82.0475 33.7681 79.8555 33.7681C79.1195 33.7681 78.4555 33.7201 77.8635 33.6241C77.2715 33.5441 76.7435 33.4401 76.2795 33.3121C75.8315 33.1841 75.4395 33.0481 75.1035 32.9041C74.7835 32.7601 74.5115 32.6241 74.2875 32.4961L75.3435 29.5201C75.8395 29.7921 76.4475 30.0401 77.1675 30.2641C77.9035 30.4721 78.7995 30.5761 79.8555 30.5761ZM89.0483 21.2401C89.6563 21.0641 90.4403 20.9041 91.4003 20.7601C92.3603 20.6001 93.3683 20.5201 94.4243 20.5201C95.4963 20.5201 96.3843 20.6641 97.0883 20.9521C97.8083 21.2241 98.3763 21.6161 98.7923 22.1281C99.2083 22.6401 99.5043 23.2481 99.6803 23.9521C99.8563 24.6561 99.9443 25.4401 99.9443 26.3041V33.4321H96.3683V26.7361C96.3683 25.5841 96.2163 24.7681 95.9123 24.2881C95.6083 23.8081 95.0403 23.5681 94.2083 23.5681C93.9523 23.5681 93.6803 23.5841 93.3923 23.6161C93.1043 23.6321 92.8483 23.6561 92.6243 23.6881V33.4321H89.0483V21.2401ZM108.005 30.9361C108.357 30.9361 108.693 30.9281 109.013 30.9121C109.333 30.8961 109.589 30.8721 109.781 30.8401V28.1281C109.637 28.0961 109.421 28.0641 109.133 28.0321C108.845 28.0001 108.581 27.9841 108.341 27.9841C108.005 27.9841 107.685 28.0081 107.381 28.0561C107.093 28.0881 106.837 28.1601 106.613 28.2721C106.389 28.3841 106.213 28.5361 106.085 28.7281C105.957 28.9201 105.893 29.1601 105.893 29.4481C105.893 30.0081 106.077 30.4001 106.445 30.6241C106.829 30.8321 107.349 30.9361 108.005 30.9361ZM107.717 20.4721C108.773 20.4721 109.653 20.5921 110.357 20.8321C111.061 21.0721 111.621 21.4161 112.037 21.8641C112.469 22.3121 112.773 22.8561 112.949 23.4961C113.125 24.1361 113.213 24.8481 113.213 25.6321V33.0721C112.701 33.1841 111.989 33.3121 111.077 33.4561C110.165 33.6161 109.061 33.6961 107.765 33.6961C106.949 33.6961 106.205 33.6241 105.533 33.4801C104.877 33.3361 104.309 33.1041 103.829 32.7841C103.349 32.4481 102.981 32.0161 102.725 31.4881C102.469 30.9601 102.341 30.3121 102.341 29.5441C102.341 28.8081 102.485 28.1841 102.773 27.6721C103.077 27.1601 103.477 26.7521 103.973 26.4481C104.469 26.1441 105.037 25.9281 105.677 25.8001C106.317 25.6561 106.981 25.5841 107.669 25.5841C108.133 25.5841 108.541 25.6081 108.893 25.6561C109.261 25.6881 109.557 25.7361 109.781 25.8001V25.4641C109.781 24.8561 109.597 24.3681 109.229 24.0001C108.861 23.6321 108.221 23.4481 107.309 23.4481C106.701 23.4481 106.101 23.4961 105.509 23.5921C104.917 23.6721 104.405 23.7921 103.973 23.9521L103.517 21.0721C103.725 21.0081 103.981 20.9441 104.285 20.8801C104.605 20.8001 104.949 20.7361 105.317 20.6881C105.685 20.6241 106.069 20.5761 106.469 20.5441C106.885 20.4961 107.301 20.4721 107.717 20.4721ZM124.535 27.2161C124.535 26.1121 124.287 25.2321 123.791 24.5761C123.295 23.9041 122.559 23.5681 121.583 23.5681C121.263 23.5681 120.967 23.5841 120.695 23.6161C120.423 23.6321 120.199 23.6561 120.023 23.6881V30.1441C120.247 30.2881 120.535 30.4081 120.887 30.5041C121.255 30.6001 121.623 30.6481 121.991 30.6481C123.687 30.6481 124.535 29.5041 124.535 27.2161ZM128.183 27.1201C128.183 28.0961 128.063 28.9841 127.823 29.7841C127.583 30.5841 127.231 31.2721 126.767 31.8481C126.303 32.4241 125.727 32.8721 125.039 33.1921C124.351 33.5121 123.559 33.6721 122.663 33.6721C122.167 33.6721 121.703 33.6241 121.271 33.5281C120.839 33.4321 120.423 33.2961 120.023 33.1201V37.8721H116.447V21.2401C116.767 21.1441 117.135 21.0561 117.551 20.9761C117.967 20.8801 118.399 20.8001 118.847 20.7361C119.311 20.6721 119.775 20.6241 120.239 20.5921C120.719 20.5441 121.175 20.5201 121.607 20.5201C122.647 20.5201 123.575 20.6801 124.391 21.0001C125.207 21.3041 125.895 21.7441 126.455 22.3201C127.015 22.8801 127.439 23.5681 127.727 24.3841C128.031 25.2001 128.183 26.1121 128.183 27.1201ZM130.331 27.1201C130.331 26.2081 130.475 25.3521 130.763 24.5521C131.067 23.7361 131.499 23.0321 132.059 22.4401C132.619 21.8321 133.299 21.3521 134.099 21.0001C134.899 20.6481 135.811 20.4721 136.835 20.4721C137.507 20.4721 138.123 20.5361 138.683 20.6641C139.243 20.7761 139.787 20.9441 140.315 21.1681L139.571 24.0241C139.235 23.8961 138.867 23.7841 138.467 23.6881C138.067 23.5921 137.619 23.5441 137.123 23.5441C136.067 23.5441 135.275 23.8721 134.747 24.5281C134.235 25.1841 133.979 26.0481 133.979 27.1201C133.979 28.2561 134.219 29.1361 134.699 29.7601C135.195 30.3841 136.051 30.6961 137.267 30.6961C137.699 30.6961 138.163 30.6561 138.659 30.5761C139.155 30.4961 139.611 30.3681 140.027 30.1921L140.531 33.1201C140.115 33.2961 139.595 33.4481 138.971 33.5761C138.347 33.7041 137.659 33.7681 136.907 33.7681C135.755 33.7681 134.763 33.6001 133.931 33.2641C133.099 32.9121 132.411 32.4401 131.867 31.8481C131.339 31.2561 130.947 30.5601 130.691 29.7601C130.451 28.9441 130.331 28.0641 130.331 27.1201ZM154.13 27.0961C154.13 28.0881 153.986 29.0001 153.698 29.8321C153.41 30.6481 152.994 31.3521 152.45 31.9441C151.906 32.5201 151.25 32.9681 150.482 33.2881C149.73 33.6081 148.882 33.7681 147.938 33.7681C147.01 33.7681 146.162 33.6081 145.394 33.2881C144.642 32.9681 143.994 32.5201 143.45 31.9441C142.906 31.3521 142.482 30.6481 142.178 29.8321C141.874 29.0001 141.722 28.0881 141.722 27.0961C141.722 26.1041 141.874 25.2001 142.178 24.3841C142.498 23.5681 142.93 22.8721 143.474 22.2961C144.034 21.7201 144.69 21.2721 145.442 20.9521C146.21 20.6321 147.042 20.4721 147.938 20.4721C148.85 20.4721 149.682 20.6321 150.434 20.9521C151.202 21.2721 151.858 21.7201 152.402 22.2961C152.946 22.8721 153.37 23.5681 153.674 24.3841C153.978 25.2001 154.13 26.1041 154.13 27.0961ZM150.482 27.0961C150.482 25.9921 150.258 25.1281 149.81 24.5041C149.378 23.8641 148.754 23.5441 147.938 23.5441C147.122 23.5441 146.49 23.8641 146.042 24.5041C145.594 25.1281 145.37 25.9921 145.37 27.0961C145.37 28.2001 145.594 29.0801 146.042 29.7361C146.49 30.3761 147.122 30.6961 147.938 30.6961C148.754 30.6961 149.378 30.3761 149.81 29.7361C150.258 29.0801 150.482 28.2001 150.482 27.0961ZM159.948 27.0241C159.948 28.1281 160.196 29.0161 160.692 29.6881C161.188 30.3601 161.924 30.6961 162.9 30.6961C163.22 30.6961 163.516 30.6881 163.788 30.6721C164.06 30.6401 164.284 30.6081 164.46 30.5761V24.0721C164.236 23.9281 163.94 23.8081 163.572 23.7121C163.22 23.6161 162.86 23.5681 162.492 23.5681C160.796 23.5681 159.948 24.7201 159.948 27.0241ZM168.036 33.0241C167.716 33.1201 167.348 33.2161 166.932 33.3121C166.516 33.3921 166.076 33.4641 165.612 33.5281C165.164 33.5921 164.7 33.6401 164.22 33.6721C163.756 33.7201 163.308 33.7441 162.876 33.7441C161.836 33.7441 160.908 33.5921 160.092 33.2881C159.276 32.9841 158.588 32.5521 158.028 31.9921C157.468 31.4161 157.036 30.7281 156.732 29.9281C156.444 29.1121 156.3 28.2001 156.3 27.1921C156.3 26.1681 156.428 25.2481 156.684 24.4321C156.94 23.6001 157.308 22.8961 157.788 22.3201C158.268 21.7441 158.852 21.3041 159.54 21.0001C160.244 20.6961 161.044 20.5441 161.94 20.5441C162.436 20.5441 162.876 20.5921 163.26 20.6881C163.66 20.7841 164.06 20.9201 164.46 21.0961V15.3841L168.036 14.8081V33.0241ZM170.784 27.2161C170.784 26.0961 170.952 25.1201 171.288 24.2881C171.64 23.4401 172.096 22.7361 172.656 22.1761C173.216 21.6161 173.856 21.1921 174.576 20.9041C175.312 20.6161 176.064 20.4721 176.832 20.4721C178.624 20.4721 180.04 21.0241 181.08 22.1281C182.12 23.2161 182.64 24.8241 182.64 26.9521C182.64 27.1601 182.632 27.3921 182.616 27.6481C182.6 27.8881 182.584 28.1041 182.568 28.2961H174.456C174.536 29.0321 174.88 29.6161 175.488 30.0481C176.096 30.4801 176.912 30.6961 177.936 30.6961C178.592 30.6961 179.232 30.6401 179.856 30.5281C180.496 30.4001 181.016 30.2481 181.416 30.0721L181.896 32.9761C181.704 33.0721 181.448 33.1681 181.128 33.2641C180.808 33.3601 180.448 33.4401 180.048 33.5041C179.664 33.5841 179.248 33.6481 178.8 33.6961C178.352 33.7441 177.904 33.7681 177.456 33.7681C176.32 33.7681 175.328 33.6001 174.48 33.2641C173.648 32.9281 172.952 32.4721 172.392 31.8961C171.848 31.3041 171.44 30.6081 171.168 29.8081C170.912 29.0081 170.784 28.1441 170.784 27.2161ZM179.184 25.8481C179.168 25.5441 179.112 25.2481 179.016 24.9601C178.936 24.6721 178.8 24.4161 178.608 24.1921C178.432 23.9681 178.2 23.7841 177.912 23.6401C177.64 23.4961 177.296 23.4241 176.88 23.4241C176.48 23.4241 176.136 23.4961 175.848 23.6401C175.56 23.7681 175.32 23.9441 175.128 24.1681C174.936 24.3921 174.784 24.6561 174.672 24.9601C174.576 25.2481 174.504 25.5441 174.456 25.8481H179.184Z" fill="white"/>
<defs>
<filter id="filter0_d_142_7" x="0.437744" y="0.432098" width="42.573" height="38.713" filterUnits="userSpaceOnUse" color-interpolation-filters="sRGB">
<feFlood flood-opacity="0" result="BackgroundImageFix"/>
<feColorMatrix in="SourceAlpha" type="matrix" values="0 0 0 0 0 0 0 0 0 0 0 0 0 0 0 0 0 0 127 0" result="hardAlpha"/>
<feOffset dy="4"/>
<feGaussianBlur stdDeviation="2"/>
<feComposite in2="hardAlpha" operator="out"/>
<feColorMatrix type="matrix" values="0 0 0 0 0.376471 0 0 0 0 0.647059 0 0 0 0 0.980392 0 0 0 1 0"/>
<feBlend mode="normal" in2="BackgroundImageFix" result="effect1_dropShadow_142_7"/>
<feBlend mode="normal" in="SourceGraphic" in2="effect1_dropShadow_142_7" result="shape"/>
</filter>
<filter id="filter1_d_142_7" x="25.709" y="17.7191" width="42.573" height="38.713" filterUnits="userSpaceOnUse" color-interpolation-filters="sRGB">
<feFlood flood-opacity="0" result="BackgroundImageFix"/>
<feColorMatrix in="SourceAlpha" type="matrix" values="0 0 0 0 0 0 0 0 0 0 0 0 0 0 0 0 0 0 127 0" result="hardAlpha"/>
<feOffset dy="4"/>
<feGaussianBlur stdDeviation="2"/>
<feComposite in2="hardAlpha" operator="out"/>
<feColorMatrix type="matrix" values="0 0 0 0 0.113725 0 0 0 0 0.305882 0 0 0 0 0.847059 0 0 0 1 0"/>
<feBlend mode="normal" in2="BackgroundImageFix" result="effect1_dropShadow_142_7"/>
<feBlend mode="normal" in="SourceGraphic" in2="effect1_dropShadow_142_7" result="shape"/>
</filter>
<filter id="filter2_d_142_7" x="20.8158" y="10.2471" width="26.8231" height="36.8972" filterUnits="userSpaceOnUse" color-interpolation-filters="sRGB">
<feFlood flood-opacity="0" result="BackgroundImageFix"/>
<feColorMatrix in="SourceAlpha" type="matrix" values="0 0 0 0 0 0 0 0 0 0 0 0 0 0 0 0 0 0 127 0" result="hardAlpha"/>
<feOffset dy="4"/>
<feGaussianBlur stdDeviation="2"/>
<feComposite in2="hardAlpha" operator="out"/>
<feColorMatrix type="matrix" values="0 0 0 0 0.219608 0 0 0 0 0.741176 0 0 0 0 0.972549 0 0 0 1 0"/>
<feBlend mode="normal" in2="BackgroundImageFix" result="effect1_dropShadow_142_7"/>
<feBlend mode="normal" in="SourceGraphic" in2="effect1_dropShadow_142_7" result="shape"/>
</filter>
<linearGradient id="paint0_linear_142_7" x1="19.6655" y1="0.432098" x2="19.6655" y2="32.2507" gradientUnits="userSpaceOnUse">
<stop stop-color="#60A5FA"/>
<stop offset="1" stop-color="#60A5FA" stop-opacity="0.6"/>
</linearGradient>
<linearGradient id="paint1_linear_142_7" x1="49.0543" y1="48.4321" x2="49.0543" y2="16.6135" gradientUnits="userSpaceOnUse">
<stop stop-color="#1D4ED8"/>
<stop offset="1" stop-color="#1D4ED8" stop-opacity="0.6"/>
</linearGradient>
<linearGradient id="paint2_linear_142_7" x1="33.6977" y1="9.03492" x2="33.6977" y2="39.1497" gradientUnits="userSpaceOnUse">
<stop stop-color="#38BDF8"/>
<stop offset="1" stop-color="#38BDF8" stop-opacity="0.6"/>
</linearGradient>
</defs>
</svg>
