<svg width="200" height="187" viewBox="0 0 200 187" fill="none" xmlns="http://www.w3.org/2000/svg">
<path d="M48.2587 80.6823C46.4162 82.5531 45.3835 85.0734 45.3835 87.6992V94.7486L76.3849 125.75C81.2813 130.646 89.1923 130.734 94.1963 125.948C99.3209 121.046 99.4555 112.903 94.4955 107.834L58.1228 70.6664L48.2587 80.6823Z" fill="#4B5563"/>
<path d="M45.3835 94.7486V87.6992C45.3835 85.0734 46.4162 82.5531 48.2587 80.6823L58.1228 70.6664L93.6693 34.573C95.9279 32.2796 97.5419 29.3647 97.7984 26.1561C98.4984 17.3963 95.4732 13.571 85.2467 12.8396C81.14 12.5459 77.2102 14.3777 74.3209 17.3108L29.6092 62.7C27.4723 64.8692 26.2745 67.7919 26.2745 70.8369C26.2745 73.912 27.4961 76.8612 29.6706 79.0357L45.3835 94.7486Z" fill="#9CA3AF"/>
<path fill-rule="evenodd" clip-rule="evenodd" d="M152.402 106.426C154.244 104.555 155.277 102.035 155.277 99.4094V92.36L124.276 61.3585C119.379 56.4622 111.468 56.3743 106.464 61.1607C101.34 66.0625 101.205 74.2059 106.165 79.2743L142.538 116.442L152.402 106.426Z" fill="#4B5563"/>
<path d="M155.277 92.36V99.4094C155.277 102.035 154.244 104.555 152.402 106.426L142.538 116.442L106.991 152.536C104.733 154.829 103.119 157.744 102.862 160.952C102.162 169.712 105.187 173.538 115.414 174.269C119.521 174.563 123.45 172.731 126.34 169.798L171.051 124.409C173.188 122.239 174.386 119.317 174.386 116.272C174.386 113.197 173.165 110.247 170.99 108.073L155.277 92.36Z" fill="#9CA3AF"/>
<ellipse cx="65.2887" cy="171.981" rx="14.3317" ry="14.3317" fill="#64748B"/>
<ellipse cx="135.355" cy="14.3317" rx="14.3317" ry="14.3317" fill="#64748B"/>
<rect x="200" y="57.977" width="28.242" height="55.9526" rx="14.121" transform="rotate(134 200 57.977)" fill="#4B5563"/>
<path d="M170.631 50.7368L153.577 52.5496L171.376 69.3969C173.054 70.9849 175.451 71.5595 177.666 70.9049C179.01 70.5079 180.188 69.686 181.025 68.5625L181.533 67.8814C182.598 66.452 183.216 64.7394 183.309 62.9593L183.313 62.8956C183.433 60.6002 182.693 58.3424 181.238 56.5631L179.429 54.3506C177.294 51.739 173.985 50.3802 170.631 50.7368Z" fill="#9CA3AF"/>
<rect x="-0.000244141" y="128.6" width="28.242" height="55.9526" rx="14.121" transform="rotate(-46 -0.000244141 128.6)" fill="#4B5563"/>
<path d="M29.3685 135.84L46.4224 134.027L28.6231 117.18C26.9453 115.592 24.5489 115.017 22.3334 115.672C20.9898 116.069 19.8111 116.891 18.9739 118.014L18.4664 118.695C17.4014 120.125 16.7833 121.837 16.69 123.617L16.6866 123.681C16.5663 125.976 17.3059 128.234 18.7609 130.014L20.5702 132.226C22.7057 134.838 26.0139 136.196 29.3685 135.84Z" fill="#9CA3AF"/>
</svg>
