<svg width="235" height="216" viewBox="0 0 235 216" fill="none" xmlns="http://www.w3.org/2000/svg">
<path d="M134.58 79.8743L92.5965 126.264C89.7602 129.398 90.0015 134.238 93.1356 137.075C96.2696 139.911 101.11 139.67 103.946 136.536L145.93 90.1457C148.766 87.0117 148.525 82.1716 145.391 79.3353C142.257 76.4989 137.417 76.7402 134.58 79.8743Z" fill="url(#paint0_linear_137_26)"/>
<path d="M128.907 49.3457L47.4998 49.3457L40.919 49.3457C33.0908 49.3458 28.2981 57.9338 32.4083 64.5962L66.9084 120.519C70.0728 125.648 77.4673 125.828 80.8763 120.857C82.8544 117.973 82.8219 114.161 80.7949 111.311L58.7349 80.296C54.0259 73.6754 58.7594 64.5 66.8839 64.5L73.6326 64.5L128.907 64.5C133.092 64.5 136.484 61.1076 136.484 56.9229C136.484 52.7381 133.092 49.3457 128.907 49.3457Z" fill="url(#paint1_linear_137_26)"/>
<path d="M106.099 166.695L187.507 166.696L194.087 166.696C201.916 166.696 206.708 158.108 202.598 151.446L168.099 95.5225C164.934 90.3931 157.54 90.214 154.131 95.1842C152.153 98.0682 152.185 101.88 154.212 104.73L176.272 135.746C180.981 142.366 176.247 151.542 168.123 151.542L161.374 151.541L106.099 151.541C101.914 151.541 98.522 154.933 98.522 159.118C98.522 163.303 101.914 166.695 106.099 166.695Z" fill="url(#paint2_linear_137_26)"/>
<defs>
<linearGradient id="paint0_linear_137_26" x1="113.588" y1="103.069" x2="124.938" y2="113.341" gradientUnits="userSpaceOnUse">
<stop stop-color="#64748B"/>
<stop offset="1" stop-color="#64748B"/>
<stop offset="1" stop-color="#64748B" stop-opacity="0.8"/>
</linearGradient>
<linearGradient id="paint1_linear_137_26" x1="106.57" y1="32.282" x2="48.4258" y2="134.222" gradientUnits="userSpaceOnUse">
<stop stop-color="#9CA3AF"/>
<stop offset="1" stop-color="#9CA3AF" stop-opacity="0.8"/>
</linearGradient>
<linearGradient id="paint2_linear_137_26" x1="128.436" y1="183.759" x2="186.581" y2="81.8202" gradientUnits="userSpaceOnUse">
<stop stop-color="#4B5563"/>
<stop offset="1" stop-color="#4B5563" stop-opacity="0.8"/>
</linearGradient>
</defs>
</svg>
