<svg width="201" height="200" viewBox="0 0 201 200" fill="none" xmlns="http://www.w3.org/2000/svg">
<path d="M17.1174 92.8316L71.5296 147.244C79.7435 155.458 93.642 152.877 98.3597 142.262C101.082 136.138 99.8421 128.977 95.2202 124.124L42.1509 68.4012C36.036 61.9806 26.084 61.1513 18.9908 66.4712C10.4756 72.8576 9.59096 85.3052 17.1174 92.8316Z" fill="#9CA3AF" fill-opacity="0.9"/>
<path d="M71.4541 14.2602L17.0419 68.6724C8.82801 76.8863 11.4087 90.7848 22.0236 95.5026C28.1477 98.2244 35.3087 96.9849 40.1617 92.363L95.8845 39.2937C102.305 33.1788 103.134 23.2269 97.8145 16.1336C91.4281 7.6184 78.9805 6.73379 71.4541 14.2602Z" fill="#1F2937" fill-opacity="0.9"/>
<path d="M182.883 107.168L128.47 52.7562C120.257 44.5423 106.358 47.123 101.64 57.7379C98.9184 63.862 100.158 71.023 104.78 75.876L157.849 131.599C163.964 138.019 173.916 138.849 181.009 133.529C189.524 127.142 190.409 114.695 182.883 107.168Z" fill="#1F2937" fill-opacity="0.9"/>
<path d="M128.689 185.74L183.101 131.328C191.315 123.114 188.734 109.215 178.119 104.497C171.995 101.776 164.834 103.015 159.981 107.637L104.258 160.706C97.8377 166.821 97.0084 176.773 102.328 183.866C108.715 192.382 121.162 193.266 128.689 185.74Z" fill="#9CA3AF" fill-opacity="0.9"/>
<path d="M89.2856 89.2857C83.3682 95.203 83.3682 104.797 89.2856 110.714C95.2029 116.632 104.797 116.632 110.714 110.714C116.631 104.797 116.631 95.203 110.714 89.2857C104.797 83.3684 95.2029 83.3684 89.2856 89.2857Z" fill="#6A798F"/>
</svg>
