<svg width="165" height="32" viewBox="0 0 165 32" fill="none" xmlns="http://www.w3.org/2000/svg">
<path d="M6.91019 20.5004L0.658545 8.08739C-1.10403 4.58766 0.87824 0 4.15301 0H16.2101C17.1848 0 17.975 1.00196 17.975 2.23794C17.975 3.47312 17.1858 4.47475 16.2117 4.47588L10.4588 4.48259C7.14902 4.48645 5.1768 9.16405 7.01252 12.6562L9.85504 18.0639C10.4166 19.1321 10.1524 20.5794 9.27788 21.2263C8.46289 21.8291 7.41794 21.5087 6.91019 20.5004Z" fill="url(#paint0_linear_144_22)"/>
<path d="M25.0899 11.4995L31.3414 23.9126C33.104 27.4123 31.1218 32 27.847 32H15.7899C14.8152 32 14.025 30.998 14.025 29.762C14.025 28.5268 14.8142 27.5252 15.7883 27.5241L21.5412 27.5173C24.851 27.5136 26.8232 22.836 24.9875 19.3438L22.1449 13.9361C21.5834 12.8679 21.8476 11.4206 22.7221 10.7737C23.5371 10.1708 24.582 10.4912 25.0899 11.4995Z" fill="url(#paint1_linear_144_22)"/>
<path d="M10.887 23.6674L17.9158 7.75992C18.3841 6.69994 19.4541 6.34738 20.2702 6.98417C21.0372 7.58277 21.2978 8.84027 20.8618 9.8397L13.9011 25.7951C13.4302 26.8744 12.3492 27.2468 11.5124 26.6181C10.7069 26.0127 10.4293 24.7031 10.887 23.6674Z" fill="url(#paint2_linear_144_22)"/>
<path d="M47.512 24.788C46.168 24.788 44.88 24.612 43.648 24.26C42.416 23.892 41.424 23.42 40.672 22.844L41.992 19.916C42.712 20.428 43.56 20.852 44.536 21.188C45.528 21.508 46.528 21.668 47.536 21.668C48.304 21.668 48.92 21.596 49.384 21.452C49.864 21.292 50.216 21.076 50.44 20.804C50.664 20.532 50.776 20.22 50.776 19.868C50.776 19.42 50.6 19.068 50.248 18.812C49.896 18.54 49.432 18.324 48.856 18.164C48.28 17.988 47.64 17.828 46.936 17.684C46.248 17.524 45.552 17.332 44.848 17.108C44.16 16.884 43.528 16.596 42.952 16.244C42.376 15.892 41.904 15.428 41.536 14.852C41.184 14.276 41.008 13.54 41.008 12.644C41.008 11.684 41.264 10.812 41.776 10.028C42.304 9.22798 43.088 8.59598 44.128 8.13198C45.184 7.65198 46.504 7.41198 48.088 7.41198C49.144 7.41198 50.184 7.53998 51.208 7.79598C52.232 8.03598 53.136 8.40398 53.92 8.89998L52.72 11.852C51.936 11.404 51.152 11.076 50.368 10.868C49.584 10.644 48.816 10.532 48.064 10.532C47.312 10.532 46.696 10.62 46.216 10.796C45.736 10.972 45.392 11.204 45.184 11.492C44.976 11.764 44.872 12.084 44.872 12.452C44.872 12.884 45.048 13.236 45.4 13.508C45.752 13.764 46.216 13.972 46.792 14.132C47.368 14.292 48 14.452 48.688 14.612C49.392 14.772 50.088 14.956 50.776 15.164C51.48 15.372 52.12 15.652 52.696 16.004C53.272 16.356 53.736 16.82 54.088 17.396C54.456 17.972 54.64 18.7 54.64 19.58C54.64 20.524 54.376 21.388 53.848 22.172C53.32 22.956 52.528 23.588 51.472 24.068C50.432 24.548 49.112 24.788 47.512 24.788ZM64.8807 11.396C65.9047 11.396 66.8167 11.604 67.6167 12.02C68.4327 12.42 69.0727 13.044 69.5367 13.892C70.0007 14.724 70.2327 15.796 70.2327 17.108V24.5H66.4887V17.684C66.4887 16.644 66.2567 15.876 65.7927 15.38C65.3447 14.884 64.7047 14.636 63.8727 14.636C63.2807 14.636 62.7447 14.764 62.2647 15.02C61.8007 15.26 61.4327 15.636 61.1607 16.148C60.9047 16.66 60.7767 17.316 60.7767 18.116V24.5H57.0327V11.588H60.6087V15.164L59.9367 14.084C60.4007 13.22 61.0647 12.556 61.9287 12.092C62.7927 11.628 63.7767 11.396 64.8807 11.396ZM81.5464 24.5V21.98L81.3064 21.428V16.916C81.3064 16.116 81.0584 15.492 80.5624 15.044C80.0824 14.596 79.3384 14.372 78.3304 14.372C77.6424 14.372 76.9624 14.484 76.2904 14.708C75.6344 14.916 75.0744 15.204 74.6104 15.572L73.2664 12.956C73.9704 12.46 74.8184 12.076 75.8104 11.804C76.8024 11.532 77.8104 11.396 78.8344 11.396C80.8024 11.396 82.3304 11.86 83.4184 12.788C84.5064 13.716 85.0504 15.164 85.0504 17.132V24.5H81.5464ZM77.6104 24.692C76.6024 24.692 75.7384 24.524 75.0184 24.188C74.2984 23.836 73.7464 23.364 73.3624 22.772C72.9784 22.18 72.7864 21.516 72.7864 20.78C72.7864 20.012 72.9704 19.34 73.3384 18.764C73.7224 18.188 74.3224 17.74 75.1384 17.42C75.9544 17.084 77.0184 16.916 78.3304 16.916H81.7624V19.1H78.7384C77.8584 19.1 77.2504 19.244 76.9144 19.532C76.5944 19.82 76.4344 20.18 76.4344 20.612C76.4344 21.092 76.6184 21.476 76.9864 21.764C77.3704 22.036 77.8904 22.172 78.5464 22.172C79.1704 22.172 79.7304 22.028 80.2264 21.74C80.7224 21.436 81.0824 20.996 81.3064 20.42L81.8824 22.148C81.6104 22.98 81.1144 23.612 80.3944 24.044C79.6744 24.476 78.7464 24.692 77.6104 24.692ZM96.0709 24.692C94.9829 24.692 94.0309 24.452 93.2149 23.972C92.3989 23.492 91.7589 22.764 91.2949 21.788C90.8469 20.796 90.6229 19.548 90.6229 18.044C90.6229 16.524 90.8389 15.276 91.2709 14.3C91.7029 13.324 92.3269 12.596 93.1429 12.116C93.9589 11.636 94.9349 11.396 96.0709 11.396C97.2869 11.396 98.3749 11.676 99.3349 12.236C100.311 12.78 101.079 13.548 101.639 14.54C102.215 15.532 102.503 16.7 102.503 18.044C102.503 19.404 102.215 20.58 101.639 21.572C101.079 22.564 100.311 23.332 99.3349 23.876C98.3749 24.42 97.2869 24.692 96.0709 24.692ZM88.4389 29.156V11.588H92.0149V14.228L91.9429 18.068L92.1829 21.884V29.156H88.4389ZM95.4229 21.62C96.0469 21.62 96.5989 21.476 97.0789 21.188C97.5749 20.9 97.9669 20.492 98.2549 19.964C98.5589 19.42 98.7109 18.78 98.7109 18.044C98.7109 17.292 98.5589 16.652 98.2549 16.124C97.9669 15.596 97.5749 15.188 97.0789 14.9C96.5989 14.612 96.0469 14.468 95.4229 14.468C94.7989 14.468 94.2389 14.612 93.7429 14.9C93.2469 15.188 92.8549 15.596 92.5669 16.124C92.2789 16.652 92.1349 17.292 92.1349 18.044C92.1349 18.78 92.2789 19.42 92.5669 19.964C92.8549 20.492 93.2469 20.9 93.7429 21.188C94.2389 21.476 94.7989 21.62 95.4229 21.62ZM111.249 24.692C109.857 24.692 108.617 24.412 107.529 23.852C106.441 23.276 105.585 22.484 104.961 21.476C104.353 20.468 104.049 19.324 104.049 18.044C104.049 16.748 104.353 15.604 104.961 14.612C105.585 13.604 106.441 12.82 107.529 12.26C108.617 11.684 109.857 11.396 111.249 11.396C112.609 11.396 113.793 11.684 114.801 12.26C115.809 12.82 116.553 13.628 117.033 14.684L114.129 16.244C113.793 15.636 113.369 15.188 112.857 14.9C112.361 14.612 111.817 14.468 111.225 14.468C110.585 14.468 110.009 14.612 109.497 14.9C108.985 15.188 108.577 15.596 108.273 16.124C107.985 16.652 107.841 17.292 107.841 18.044C107.841 18.796 107.985 19.436 108.273 19.964C108.577 20.492 108.985 20.9 109.497 21.188C110.009 21.476 110.585 21.62 111.225 21.62C111.817 21.62 112.361 21.484 112.857 21.212C113.369 20.924 113.793 20.468 114.129 19.844L117.033 21.428C116.553 22.468 115.809 23.276 114.801 23.852C113.793 24.412 112.609 24.692 111.249 24.692ZM125.169 24.692C123.793 24.692 122.569 24.404 121.497 23.828C120.441 23.252 119.601 22.468 118.977 21.476C118.369 20.468 118.065 19.324 118.065 18.044C118.065 16.748 118.369 15.604 118.977 14.612C119.601 13.604 120.441 12.82 121.497 12.26C122.569 11.684 123.793 11.396 125.169 11.396C126.529 11.396 127.745 11.684 128.817 12.26C129.889 12.82 130.729 13.596 131.337 14.588C131.945 15.58 132.249 16.732 132.249 18.044C132.249 19.324 131.945 20.468 131.337 21.476C130.729 22.468 129.889 23.252 128.817 23.828C127.745 24.404 126.529 24.692 125.169 24.692ZM125.169 21.62C125.793 21.62 126.353 21.476 126.849 21.188C127.345 20.9 127.737 20.492 128.025 19.964C128.313 19.42 128.457 18.78 128.457 18.044C128.457 17.292 128.313 16.652 128.025 16.124C127.737 15.596 127.345 15.188 126.849 14.9C126.353 14.612 125.793 14.468 125.169 14.468C124.545 14.468 123.985 14.612 123.489 14.9C122.993 15.188 122.593 15.596 122.289 16.124C122.001 16.652 121.857 17.292 121.857 18.044C121.857 18.78 122.001 19.42 122.289 19.964C122.593 20.492 122.993 20.9 123.489 21.188C123.985 21.476 124.545 21.62 125.169 21.62ZM140.295 24.692C139.079 24.692 137.983 24.42 137.007 23.876C136.031 23.316 135.255 22.54 134.679 21.548C134.119 20.556 133.839 19.388 133.839 18.044C133.839 16.684 134.119 15.508 134.679 14.516C135.255 13.524 136.031 12.756 137.007 12.212C137.983 11.668 139.079 11.396 140.295 11.396C141.383 11.396 142.335 11.636 143.151 12.116C143.967 12.596 144.599 13.324 145.047 14.3C145.495 15.276 145.719 16.524 145.719 18.044C145.719 19.548 145.503 20.796 145.071 21.788C144.639 22.764 144.015 23.492 143.199 23.972C142.399 24.452 141.431 24.692 140.295 24.692ZM140.943 21.62C141.551 21.62 142.103 21.476 142.599 21.188C143.095 20.9 143.487 20.492 143.775 19.964C144.079 19.42 144.231 18.78 144.231 18.044C144.231 17.292 144.079 16.652 143.775 16.124C143.487 15.596 143.095 15.188 142.599 14.9C142.103 14.612 141.551 14.468 140.943 14.468C140.319 14.468 139.759 14.612 139.263 14.9C138.767 15.188 138.367 15.596 138.063 16.124C137.775 16.652 137.631 17.292 137.631 18.044C137.631 18.78 137.775 19.42 138.063 19.964C138.367 20.492 138.767 20.9 139.263 21.188C139.759 21.476 140.319 21.62 140.943 21.62ZM144.327 24.5V21.86L144.399 18.02L144.159 14.204V6.69198H147.903V24.5H144.327ZM157.777 24.692C156.305 24.692 155.009 24.404 153.889 23.828C152.785 23.252 151.929 22.468 151.321 21.476C150.713 20.468 150.409 19.324 150.409 18.044C150.409 16.748 150.705 15.604 151.297 14.612C151.905 13.604 152.729 12.82 153.769 12.26C154.809 11.684 155.985 11.396 157.297 11.396C158.561 11.396 159.697 11.668 160.705 12.212C161.729 12.74 162.537 13.508 163.129 14.516C163.721 15.508 164.017 16.7 164.017 18.092C164.017 18.236 164.009 18.404 163.993 18.596C163.977 18.772 163.961 18.94 163.945 19.1H153.457V16.916H161.977L160.537 17.564C160.537 16.892 160.401 16.308 160.129 15.812C159.857 15.316 159.481 14.932 159.001 14.66C158.521 14.372 157.961 14.228 157.321 14.228C156.681 14.228 156.113 14.372 155.617 14.66C155.137 14.932 154.761 15.324 154.489 15.836C154.217 16.332 154.081 16.924 154.081 17.612V18.188C154.081 18.892 154.233 19.516 154.537 20.06C154.857 20.588 155.297 20.996 155.857 21.284C156.433 21.556 157.105 21.692 157.873 21.692C158.561 21.692 159.161 21.588 159.673 21.38C160.201 21.172 160.681 20.86 161.113 20.444L163.105 22.604C162.513 23.276 161.769 23.796 160.873 24.164C159.977 24.516 158.945 24.692 157.777 24.692Z" fill="black"/>
<defs>
<linearGradient id="paint0_linear_144_22" x1="7.2802" y1="0" x2="7.2802" y2="22.3053" gradientUnits="userSpaceOnUse">
<stop stop-color="#60A5FA"/>
<stop offset="1" stop-color="#60A5FA" stop-opacity="0.6"/>
</linearGradient>
<linearGradient id="paint1_linear_144_22" x1="24.7198" y1="32" x2="24.7198" y2="9.6947" gradientUnits="userSpaceOnUse">
<stop stop-color="#1D4ED8"/>
<stop offset="1" stop-color="#1D4ED8" stop-opacity="0.6"/>
</linearGradient>
<linearGradient id="paint2_linear_144_22" x1="15.5768" y1="5.8169" x2="15.5768" y2="26.9277" gradientUnits="userSpaceOnUse">
<stop stop-color="#38BDF8"/>
<stop offset="1" stop-color="#38BDF8" stop-opacity="0.6"/>
</linearGradient>
</defs>
</svg>
